#!OML:ASF E:\Steps\Project 1\Capture day 1\Session 2\Subject.ASF
:FULLY-SPECIFIED
:DEGREES
333
root 3.86196 18.7643 16.217 -156.771 1.09002 -181.844
lowerback -27.8595 -2.00667 -6.81858
upperback -2.76242 0.289666 0.0254584
thorax 12.3986 0.116333 4.15536
lowerneck -4.48801 -2.64396 0.212133
upperneck 7.12407 -3.75635 1.35838
head 3.08616 -1.84807 0.247874
rclavicle -1.01256e-014 1.19271e-014
rhumerus -39.4197 -19.419 -75.5434
rradius 29.8465
rwrist -0.550629
rhand -7.62901 -52.6657
rfingers 7.12502
rthumb 18.2658 -81.8281
lclavicle -1.01256e-014 1.19271e-014
lhumerus -26.9379 3.19267 81.7682
lradius 20.9081
lwrist -7.14166
lhand -20.5671 -13.571
lfingers 7.12502
lthumb 5.79232 16.3299
rfemur -20.8041 2.7271 21.7476
rtibia 5.62763
rfoot -16.514 1.81753
rtoes -11.2804
lfemur -19.8431 -8.44263 -21.95
ltibia 7.7917
lfoot -8.30567 0.692379
ltoes -38.196
334
root 3.85913 18.7655 16.2131 -156.706 1.05306 -181.742
lowerback -26.8154 -2.05733 -6.82658
upperback -3.53425 0.190516 0.174285
thorax 10.968 0.18353 4.27852
lowerneck -4.08327 -2.60304 0.0829381
upperneck 7.63287 -3.72485 1.30741
head 3.18509 -1.84854 0.25662
rclavicle -5.76476e-015 1.17283e-014
rhumerus -40.5612 -18.752 -75.2111
rradius 30.0035
rwrist -0.704756
rhand -7.71373 -53.0817
rfingers 7.12502
rthumb 18.1843 -82.2517
lclavicle -5.76476e-015 1.17283e-014
lhumerus -28.1694 3.08966 81.8564
lradius 21.253
lwrist -6.99009
lhand -20.6136 -13.6357
lfingers 7.12502
lthumb 5.74742 16.2663
rfemur -20.8358 2.88497 21.8472
rtibia 5.60215
rfoot -16.6215 1.66013
rtoes -11.5987
lfemur -19.874 -8.415 -21.8276
ltibia 7.72824
lfoot -8.2312 0.659567
ltoes -37.9762
335
root 3.85508 18.7667 16.2068 -156.661 1.01529 -181.632
lowerback -26.9723 -2.07384 -6.81898
upperback -3.49278 0.158713 0.316163
thorax 11.1006 0.157273 4.42732
lowerneck -4.08713 -2.59607 -0.0268465
upperneck 7.51167 -3.69574 1.26911
head 3.14547 -1.83659 0.265386
rclavicle 5.96354e-016 -7.95139e-015
rhumerus -40.3421 -18.6614 -75.1215
rradius 29.9664
rwrist -0.548624
rhand -7.58632 -53.4562
rfingers 7.12502
rthumb 18.3068 -82.6148
lclavicle 5.96354e-016 -7.95139e-015
lhumerus -28.0274 3.21645 82.0563
lradius 21.3894
lwrist -6.71671
lhand -20.2413 -13.7214
lfingers 7.12502
lthumb 6.1069 16.1706
rfemur -20.8311 2.9306 21.9711
rtibia 5.5381
rfoot -16.7037 1.61504
rtoes -12.1592
lfemur -19.8843 -8.45634 -21.6971
ltibia 7.71796
lfoot -8.25014 0.722144
ltoes -38.2596
336
root 3.85162 18.7673 16.1978 -156.627 1.003 -181.515
lowerback -27.1361 -2.06721 -6.71997
upperback -3.46402 0.142127 0.390287
thorax 11.2209 0.146072 4.45176
lowerneck -4.04023 -2.5305 -0.142445
upperneck 7.38818 -3.60024 1.35703
head 3.09806 -1.78858 0.319234
rclavicle 4.34841e-017 -8.84592e-015
rhumerus -40.1939 -18.6473 -75.0933
rradius 29.959
rwrist -0.499779
rhand -7.22646 -53.3383
rfingers 7.12502
rthumb 18.653 -82.464
lclavicle 4.34841e-017 -8.84592e-015
lhumerus -28.0195 3.16425 82.1575
lradius 21.6551
lwrist -6.31427
lhand -19.9595 -13.7691
lfingers 7.12502
lthumb 6.37887 16.1148
rfemur -20.8059 3.02749 22.0853
rtibia 5.48812
rfoot -16.6434 1.56632
rtoes -12.1
lfemur -19.8512 -8.54476 -21.5506
ltibia 7.66884
lfoot -8.30382 0.851584
ltoes -38.3571
337
root 3.8484 18.768 16.19 -156.542 1.03899 -181.426
lowerback -27.3383 -2.0547 -6.6637
upperback -3.43996 0.152361 0.454763
thorax 11.3528 0.146569 4.50048
lowerneck -4.09183 -2.49602 -0.155307
upperneck 7.36078 -3.54344 1.28327
head 3.09654 -1.76185 0.299442
rclavicle -6.57853e-015 9.14409e-015
rhumerus -40.0786 -18.5137 -75.1599
rradius 30.0706
rwrist -0.655539
rhand -7.11459 -53.5037
rfingers 7.12502
rthumb 18.7606 -82.619
lclavicle -6.57853e-015 9.14409e-015
lhumerus -28.0481 3.07224 82.3038
lradius 21.9026
lwrist -6.08301
lhand -19.9675 -13.9189
lfingers 7.12502
lthumb 6.37115 15.9653
rfemur -20.8447 3.12112 22.1498
rtibia 5.46628
rfoot -16.5769 1.58343
rtoes -11.3787
lfemur -19.8658 -8.54547 -21.4516
ltibia 7.59022
lfoot -8.29485 0.948213
ltoes -38.3672
338
root 3.84354 18.77 16.1851 -156.458 1.00414 -181.37
lowerback -27.4774 -2.05567 -6.62002
upperback -3.40881 0.142926 0.502204
thorax 11.4623 0.137365 4.52885
lowerneck -4.2131 -2.54495 -0.126881
upperneck 7.27813 -3.60055 1.24601
head 3.09027 -1.78797 0.279196
rclavicle 6.02566e-015 1.98785e-015
rhumerus -39.94 -18.4032 -75.2459
rradius 30.1911
rwrist -0.798527
rhand -7.35072 -53.9108
rfingers 7.12502
rthumb 18.5335 -83.0479
lclavicle 6.02566e-015 1.98785e-015
lhumerus -27.9767 2.92146 82.5223
lradius 22.0409
lwrist -5.64112
lhand -19.5406 -12.9728
lfingers 7.12502
lthumb 6.78328 16.8985
rfemur -20.9153 2.95297 22.2305
rtibia 5.48612
rfoot -16.5878 1.71896
rtoes -11.1671
lfemur -19.9397 -8.51659 -21.3975
ltibia 7.59623
lfoot -8.27029 0.918418
ltoes -38.3136
339
root 3.83931 18.7724 16.1822 -156.384 0.909543 -181.293
lowerback -27.5164 -2.08101 -6.53814
upperback -3.39603 0.0791978 0.562509
thorax 11.505 0.107372 4.52806
lowerneck -4.25643 -2.51392 -0.26196
upperneck 6.9836 -3.54393 1.39498
head 3.00376 -1.75477 0.354458
rclavicle -6.62823e-015 1.47101e-014
rhumerus -39.7807 -18.2569 -75.3515
rradius 30.2839
rwrist -0.931144
rhand -7.60757 -54.2866
rfingers 7.12502
rthumb 18.2864 -83.447
lclavicle -6.62823e-015 1.47101e-014
lhumerus -27.9024 2.94965 82.6479
lradius 22.1363
lwrist -5.30096
lhand -20.8345 -14.343
lfingers 7.12502
lthumb 5.53411 15.5647
rfemur -20.9868 2.79524 22.3578
rtibia 5.49616
rfoot -16.6223 1.75443
rtoes -11.8371
lfemur -20.0389 -8.47584 -21.3009
ltibia 7.62632
lfoot -8.27664 0.793576
ltoes -38.0638
340
root 3.83643 18.7745 16.179 -156.312 0.819811 -181.212
lowerback -27.5398 -1.95617 -6.45743
upperback -3.49499 0.257148 0.430773
thorax 11.3823 0.213764 4.39596
lowerneck -4.09333 -2.46543 -0.0808644
upperneck 6.81404 -3.49717 1.51974
head 2.91382 -1.72442 0.368541
rclavicle 7.74639e-015 1.38155e-014
rhumerus -40.1104 -18.7329 -75.3404
rradius 30.4415
rwrist -0.901525
rhand -7.80313 -54.4475
rfingers 7.12502
rthumb 18.0983 -83.6255
lclavicle 7.74639e-015 1.38155e-014
lhumerus -28.044 2.33872 82.623
lradius 22.2937
lwrist -5.44957
lhand -20.4341 -13.5866
lfingers 7.12502
lthumb 5.92068 16.3107
rfemur -21.0336 2.84318 22.4544
rtibia 5.45047
rfoot -16.667 1.66224
rtoes -12.3393
lfemur -20.1239 -8.30594 -21.2116
ltibia 7.6259
lfoot -8.24581 0.552286
ltoes -38.0866
341
root 3.83377 18.7757 16.1749 -156.259 0.73383 -181.134
lowerback -27.5847 -1.95669 -6.33955
upperback -3.50958 0.228957 0.430249
thorax 11.3925 0.208078 4.31777
lowerneck -4.03726 -2.33457 -0.299602
upperneck 6.35911 -3.30219 1.76641
head 2.75742 -1.62244 0.496194
rclavicle 6.60338e-015 -1.14301e-014
rhumerus -40.061 -18.8465 -75.3448
rradius 30.4549
rwrist -0.773189
rhand -7.56959 -54.1945
rfingers 7.12502
rthumb 18.3229 -83.3515
lclavicle 6.60338e-015 -1.14301e-014
lhumerus -28.1161 2.13074 82.6496
lradius 22.518
lwrist -5.61286
lhand -20.5822 -13.0722
lfingers 7.12502
lthumb 5.77773 16.8291
rfemur -21.0383 2.91724 22.5346
rtibia 5.38863
rfoot -16.6534 1.55569
rtoes -12.2434
lfemur -20.1835 -8.096 -21.1428
ltibia 7.64591
lfoot -8.20034 0.300186
ltoes -38.4221
